<?xml version="1.0" encoding="utf-8"?>
<!-- Generator: Adobe Illustrator 24.0.1, SVG Export Plug-In . SVG Version: 6.00 Build 0)  -->
<svg version="1.1" id="图层_1" xmlns="http://www.w3.org/2000/svg" xmlns:xlink="http://www.w3.org/1999/xlink" x="0px" y="0px"
	 viewBox="0 0 400 400" style="enable-background:new 0 0 400 400;" xml:space="preserve">
<style type="text/css">
	.st0{fill:url(#backHorizon_2_);}
	.st1{fill:none;stroke:#FFFFFF;stroke-width:3;stroke-miterlimit:10;}
	.st2{fill:none;}
	.st3{fill:none;stroke:#FFFFFF;stroke-width:2;stroke-linecap:round;stroke-miterlimit:10;}
	.st4{fill:none;stroke:#FFFFFF;stroke-linecap:round;stroke-miterlimit:10;}
	.st5{fill:#F1F2F2;}
	.st6{display:none;fill:#F1F2F2;}
	.st7{fill:#C72B27;}
	.st8{fill:#7F0036;}
	.st9{fill:#EE3424;}
</style>
<linearGradient id="backHorizon_2_" gradientUnits="userSpaceOnUse" x1="200" y1="-1707.2001" x2="200" y2="-1407.6" gradientTransform="matrix(1 0 0 -1 0 -1357.4)">
	<stop  offset="0.5" style="stop-color:#558EBB"/>
	<stop  offset="0.501" style="stop-color:#6AA433"/>
</linearGradient>
<circle id="backHorizon_1_" class="st0" cx="200" cy="200" r="149.8"/>
<g>
	<circle class="st1" cx="200" cy="200" r="148.2"/>
	<circle class="st2" cx="200" cy="200" r="146.2"/>
	<line class="st3" x1="200" y1="56.2" x2="200" y2="79.6"/>
	<line class="st3" x1="128.1" y1="75.4" x2="139.8" y2="95.7"/>
	<line class="st3" x1="75.4" y1="128.1" x2="95.7" y2="139.8"/>
	<line class="st3" x1="56.2" y1="200" x2="79.6" y2="200"/>
	<line class="st3" x1="75.4" y1="271.9" x2="95.7" y2="260.2"/>
	<line class="st3" x1="128.1" y1="324.6" x2="139.8" y2="304.3"/>
	<line class="st3" x1="200" y1="343.8" x2="200" y2="320.4"/>
	<line class="st3" x1="271.9" y1="324.6" x2="260.2" y2="304.3"/>
	<line class="st3" x1="324.6" y1="271.9" x2="304.3" y2="260.2"/>
	<line class="st3" x1="343.8" y1="200" x2="320.4" y2="200"/>
	<line class="st3" x1="324.6" y1="128.1" x2="304.3" y2="139.8"/>
	<line class="st3" x1="271.9" y1="75.4" x2="260.2" y2="95.7"/>
	<line class="st4" x1="200" y1="56.2" x2="200" y2="71.2"/>
	<line class="st4" x1="175" y1="58.3" x2="177.6" y2="73.2"/>
	<line class="st4" x1="150.8" y1="64.8" x2="156" y2="79"/>
	<line class="st4" x1="128.1" y1="75.4" x2="135.6" y2="88.5"/>
	<line class="st4" x1="107.5" y1="89.8" x2="117.2" y2="101.4"/>
	<line class="st4" x1="89.8" y1="107.5" x2="101.4" y2="117.2"/>
	<line class="st4" x1="75.4" y1="128.1" x2="88.5" y2="135.6"/>
	<line class="st4" x1="64.8" y1="150.8" x2="79" y2="156"/>
	<line class="st4" x1="58.3" y1="175" x2="73.2" y2="177.6"/>
	<line class="st4" x1="56.2" y1="200" x2="71.2" y2="200"/>
	<line class="st4" x1="58.3" y1="225" x2="73.2" y2="222.4"/>
	<line class="st4" x1="64.8" y1="249.2" x2="79" y2="244"/>
	<line class="st4" x1="75.4" y1="271.9" x2="88.5" y2="264.4"/>
	<line class="st4" x1="89.8" y1="292.5" x2="101.4" y2="282.8"/>
	<line class="st4" x1="107.5" y1="310.2" x2="117.2" y2="298.6"/>
	<line class="st4" x1="128.1" y1="324.6" x2="135.6" y2="311.5"/>
	<line class="st4" x1="150.8" y1="335.2" x2="156" y2="321"/>
	<line class="st4" x1="175" y1="341.7" x2="177.6" y2="326.8"/>
	<line class="st4" x1="200" y1="343.8" x2="200" y2="328.8"/>
	<line class="st4" x1="225" y1="341.7" x2="222.4" y2="326.8"/>
	<line class="st4" x1="249.2" y1="335.2" x2="244" y2="321"/>
	<line class="st4" x1="271.9" y1="324.6" x2="264.4" y2="311.5"/>
	<line class="st4" x1="292.5" y1="310.2" x2="282.8" y2="298.6"/>
	<line class="st4" x1="310.2" y1="292.5" x2="298.6" y2="282.8"/>
	<line class="st4" x1="324.6" y1="271.9" x2="311.5" y2="264.4"/>
	<line class="st4" x1="335.2" y1="249.2" x2="321" y2="244"/>
	<line class="st4" x1="341.7" y1="225" x2="326.8" y2="222.4"/>
	<line class="st4" x1="343.8" y1="200" x2="328.8" y2="200"/>
	<line class="st4" x1="341.7" y1="175" x2="326.8" y2="177.6"/>
	<line class="st4" x1="335.2" y1="150.8" x2="321" y2="156"/>
	<line class="st4" x1="324.6" y1="128.1" x2="311.5" y2="135.6"/>
	<line class="st4" x1="310.2" y1="107.5" x2="298.6" y2="117.2"/>
	<line class="st4" x1="292.5" y1="89.8" x2="282.8" y2="101.4"/>
	<line class="st4" x1="271.9" y1="75.4" x2="264.4" y2="88.5"/>
	<line class="st4" x1="249.2" y1="64.8" x2="244" y2="79"/>
	<line class="st4" x1="225" y1="58.3" x2="222.4" y2="73.2"/>
	<g>
		<path class="st5" d="M90.2,211.7L84,188.3h3.2l3.6,15.3c0.4,1.6,0.7,3.2,1,4.8c0.6-2.5,0.9-3.9,1.1-4.3l4.5-15.8h3.7l3.4,11.8
			c0.8,2.9,1.4,5.7,1.8,8.3c0.3-1.5,0.7-3.2,1.2-5.1l3.7-15h3.1l-6.4,23.4h-3l-4.9-17.8c-0.4-1.5-0.7-2.4-0.7-2.7
			c-0.2,1.1-0.5,2-0.7,2.7l-5,17.8H90.2L90.2,211.7z"/>
	</g>
	<g>
		<path class="st5" d="M191.1,306.7l2.8-0.2c0.1,1.1,0.4,2.1,0.9,2.8s1.2,1.3,2.3,1.8s2.2,0.7,3.5,0.7c1.1,0,2.1-0.2,3-0.5
			s1.5-0.8,2-1.4c0.4-0.6,0.6-1.2,0.6-1.9c0-0.7-0.2-1.3-0.6-1.9c-0.4-0.5-1.1-1-2-1.3c-0.6-0.2-1.9-0.6-4-1.1s-3.5-1-4.4-1.4
			c-1.1-0.6-1.9-1.3-2.4-2.1c-0.5-0.8-0.8-1.8-0.8-2.8c0-1.1,0.3-2.2,1-3.2c0.6-1,1.6-1.7,2.8-2.3c1.2-0.5,2.6-0.8,4.2-0.8
			c1.7,0,3.2,0.3,4.4,0.8c1.3,0.5,2.3,1.3,3,2.4c0.7,1,1.1,2.2,1.1,3.6l-2.9,0.2c-0.2-1.4-0.7-2.5-1.6-3.2c-0.9-0.7-2.2-1.1-3.9-1.1
			c-1.8,0-3.1,0.3-4,1c-0.8,0.7-1.2,1.5-1.2,2.4c0,0.8,0.3,1.5,0.9,2c0.6,0.5,2.1,1.1,4.5,1.6c2.4,0.6,4.1,1,5,1.4
			c1.3,0.6,2.3,1.4,2.9,2.3c0.6,0.9,0.9,2,0.9,3.2s-0.3,2.3-1,3.4s-1.7,1.9-3,2.5s-2.7,0.9-4.4,0.9c-2,0-3.8-0.3-5.1-0.9
			c-1.4-0.6-2.5-1.5-3.3-2.7C191.6,309.6,191.2,308.2,191.1,306.7z"/>
	</g>
	<g>
		<path class="st5" d="M298.2,212.2v-23.4h16.9v2.8h-13.8v7.2h12.9v2.7h-12.9v8h14.4v2.8L298.2,212.2L298.2,212.2z"/>
	</g>
	<g>
		<path class="st5" d="M190.7,109.5V86.1h3.2l12.3,18.4V86.1h3v23.4H206l-12.3-18.4v18.4H190.7z"/>
	</g>
	<polygon class="st5" points="194.2,346.2 200,334.5 205.8,346.2 	"/>
	<polygon class="st5" points="346.2,205.8 334.5,200 346.2,194.2 	"/>
	<polygon class="st6" points="205.8,53.8 200,65.5 194.2,53.8 	"/>
	<polygon class="st5" points="53.8,194.2 65.5,200 53.8,205.8 	"/>
</g>
<g>
	<g>
		<polygon class="st7" points="198.8,140.7 198.8,231.5 138.3,261.7 		"/>
		<path class="st8" d="M197.6,145.7v85L140.9,259L197.6,145.7 M200,135.6l-64.4,128.8l64.4-32.2V135.6L200,135.6z"/>
	</g>
	<g>
		<polygon class="st9" points="201.2,231.5 201.2,140.7 261.7,261.7 		"/>
		<path class="st8" d="M202.4,145.7L259.1,259l-56.7-28.3L202.4,145.7 M200,135.6v96.6l64.4,32.2L200,135.6L200,135.6z"/>
	</g>
</g>
</svg>
