<svg width="36" height="40" viewBox="0 0 36 40" fill="none" xmlns="http://www.w3.org/2000/svg">
<g clip-path="url(#clip0_167_1756)">
<path d="M2.46738 32.6933H33.3691C34.9149 32.6933 35.8513 31.8715 35.8513 30.6462C35.8513 28.7038 33.9488 27.0004 32.3287 25.297C30.872 23.7281 30.649 20.5304 30.3964 17.796C30.1437 10.9825 28.1965 6.17111 23.2469 4.48263C22.5929 1.92753 20.6458 0 17.9257 0C15.2056 0 13.2584 1.92753 12.6045 4.48263C7.65481 6.17111 5.70768 10.9825 5.45502 17.796C5.20231 20.5304 4.97936 23.7281 3.52271 25.297C1.8877 27.0004 0 28.7038 0 30.6462C0 31.8715 0.936418 32.6933 2.46738 32.6933ZM17.9257 40C21.0917 40 23.3509 37.6989 23.663 35.0691H12.1883C12.4856 37.6989 14.7597 40 17.9257 40Z" fill="black" fill-opacity="0.85"/>
</g>
<defs>
<clipPath id="clip0_167_1756">
<rect width="36" height="40" fill="white"/>
</clipPath>
</defs>
</svg>
