<svg width="78" height="60" viewBox="0 0 78 60" fill="none" xmlns="http://www.w3.org/2000/svg">
<path d="M64.8789 22.8645C62.7679 22.8645 61.0495 21.2025 61.0495 19.1369C61.0495 17.095 62.7679 15.4329 64.8789 15.4329C66.99 15.4329 68.7329 17.095 68.7329 19.1369C68.7329 21.2025 66.99 22.8645 64.8789 22.8645ZM9.54894 57.7667H67.4073C73.7405 57.7667 76.9563 54.6802 76.9563 48.6257V16.4777C76.9563 10.4469 73.7405 7.33659 67.4073 7.33659H58.202C55.6736 7.33659 54.9618 6.9567 53.4644 5.34217L50.8623 2.51676C49.2422 0.807262 47.7202 0 44.5291 0H32.0589C28.8678 0 27.3458 0.807262 25.7257 2.51676L23.1237 5.34217C21.6754 6.90921 20.8899 7.33659 18.3861 7.33659H9.54894C3.21572 7.33659 0 10.4469 0 16.4777V48.6257C0 54.6802 3.21572 57.7667 9.54894 57.7667ZM38.4904 49.0768C28.8678 49.0768 21.1354 41.6215 21.1354 32.2668C21.1354 22.8883 28.8678 15.4329 38.4904 15.4329C48.1376 15.4329 55.8454 22.8883 55.8454 32.2668C55.8454 41.6215 48.1131 49.0768 38.4904 49.0768ZM38.4904 45.0642C45.781 45.0642 51.6969 39.3659 51.6969 32.2668C51.6969 25.1438 45.781 19.4455 38.4904 19.4455C31.1753 19.4455 25.2593 25.1438 25.2593 32.2668C25.2593 39.3659 31.1998 45.0642 38.4904 45.0642Z" fill="black"/>
</svg>
