<svg width="71" height="57" viewBox="0 0 71 57" fill="none" xmlns="http://www.w3.org/2000/svg">
<path d="M0 54.0625C0 55.2496 1.00644 56.1519 2.18472 56.1519H67.9474C69.1256 56.1519 70.1321 55.2496 70.1321 54.0625C70.1321 52.8753 69.1256 51.9731 67.9474 51.9731H2.18472C1.00644 51.9731 0 52.8753 0 54.0625Z" fill="black"/>
<path d="M54.1272 44.6368C54.1272 46.2752 55.2073 47.2486 56.9746 47.2486H64.6335C66.3518 47.2486 67.4564 46.2752 67.4564 44.6368V23.6718C67.4564 22.0572 66.3518 21.0601 64.6335 21.0601H56.9746C55.2073 21.0601 54.1272 22.0572 54.1272 23.6718V44.6368Z" fill="black"/>
<path d="M36.9685 44.6369C36.9685 46.2752 38.0732 47.2487 39.816 47.2487H47.4503C49.1932 47.2487 50.2977 46.2752 50.2977 44.6369V9.68719C50.2977 8.02523 49.1932 7.05176 47.4503 7.05176H39.816C38.0732 7.05176 36.9685 8.02523 36.9685 9.68719V44.6369Z" fill="black"/>
<path d="M19.8098 44.6368C19.8098 46.2751 20.9145 47.2486 22.6327 47.2486H30.2916C32.0345 47.2486 33.1391 46.2751 33.1391 44.6368V2.61173C33.1391 0.997208 32.0345 0 30.2916 0H22.6327C20.9145 0 19.8098 0.997208 19.8098 2.61173V44.6368Z" fill="black"/>
<path d="M2.67572 44.6366C2.67572 46.2749 3.7558 47.2484 5.49868 47.2484H13.1574C14.8758 47.2484 16.005 46.2749 16.005 44.6366V16.786C16.005 15.1953 14.8758 14.1743 13.1574 14.1743H5.49868C3.7558 14.1743 2.67572 15.1953 2.67572 16.786V44.6366Z" fill="black"/>
</svg>
