<svg width="78" height="78" viewBox="0 0 78 78" fill="none" xmlns="http://www.w3.org/2000/svg">
<path d="M76.9066 38.5852C76.9066 59.8174 59.6358 77.1408 38.4385 77.1408C17.2708 77.1408 0 59.8174 0 38.5852C0 17.3234 17.2708 0 38.4385 0C59.6358 0 76.9066 17.3234 76.9066 38.5852ZM28.017 20.6103C26.3047 20.6103 25.3895 21.8244 25.3895 23.6308V52.9769C25.3895 54.8129 26.3047 56.027 28.017 56.027H38.0842C48.86 56.027 55.0892 49.6899 55.0892 38.2002C55.0892 26.9771 48.9485 20.6103 38.0842 20.6103H28.017ZM49.6275 38.2891C49.6275 47.2321 45.2583 51.7628 37.4642 51.7628H30.6445V24.8449H37.4642C45.1992 24.8449 49.6275 29.6422 49.6275 38.2891Z" fill="black"/>
</svg>
