<svg width="74" height="75" viewBox="0 0 74 75" fill="none" xmlns="http://www.w3.org/2000/svg">
<path d="M36.472 74.6719C45.7869 74.6719 47.2805 68.4512 53.1193 68.4512C59.0938 68.4512 60.0172 74.6719 70.6627 74.6719H70.8257C72.0206 74.6719 72.9712 73.8409 72.9712 72.8199C72.9712 71.7753 72.0206 70.9442 70.8257 70.9442H70.6627C66.7793 70.9442 64.5795 69.5196 61.9182 67.9051C59.637 66.4568 56.8942 64.7473 53.1193 64.7473C49.2087 64.7473 46.4386 66.5517 44.1574 68.0476C41.7404 69.6383 39.7308 70.9442 36.472 70.9442C33.2131 70.9442 31.2306 69.6383 28.8137 68.0476C26.5324 66.5517 23.7353 64.7473 19.8519 64.7473C16.0499 64.7473 13.3069 66.4568 11.0258 67.9051C8.39154 69.5196 6.19182 70.9442 2.30835 70.9442H2.11825C0.950498 70.9442 0 71.7753 0 72.8199C0 73.8409 0.950498 74.6719 2.11825 74.6719H2.30835C12.9268 74.6719 13.8773 68.4512 19.8519 68.4512C25.6906 68.4512 27.1843 74.6719 36.472 74.6719ZM36.472 67.6439C38.3458 67.6439 39.3235 67.0978 41.8763 65.3884C44.1574 63.9163 47.9595 61.4233 53.1193 61.4233C56.1609 61.4233 58.6322 62.1593 61.3751 63.6076L71.2602 47.9135C74.1388 43.4261 72.8625 40.2445 67.8655 38.2026L42.9082 28.183C41.3331 27.5658 39.2963 26.6398 36.472 26.6398C33.6747 26.6398 31.638 27.5658 30.0629 28.183L5.10553 38.2026C0.0814713 40.2445 -1.16775 43.4261 1.68374 47.9135L11.5689 63.6076C14.3389 62.1593 16.8103 61.4233 19.8519 61.4233C24.9845 61.4233 28.8137 63.9163 31.0949 65.3884C33.6476 67.0978 34.6253 67.6439 36.472 67.6439ZM36.472 22.8646C39.6222 22.8646 41.7404 23.5532 44.7006 24.7403L62.9501 32.0769L59.9085 12.6789C59.3926 9.28363 56.9756 7.02804 53.1464 7.02804H19.879C16.0499 7.02804 13.7143 9.28363 13.1168 13.1537L10.0752 32.0532L28.2705 24.7403C31.2306 23.5532 33.3489 22.8646 36.472 22.8646ZM21.1554 19.6831C20.3678 19.6831 19.8519 19.2082 19.8519 18.5196V13.4861C19.8519 12.7976 20.3678 12.299 21.1554 12.299H32.154C33.1317 12.299 33.7563 12.7976 33.7563 13.4861V18.5196C33.7563 19.2082 33.1317 19.6831 32.154 19.6831H21.1554ZM40.5455 19.6831C39.7579 19.6831 39.242 19.2082 39.242 18.5196V13.4861C39.242 12.7976 39.7579 12.299 40.5455 12.299H51.5713C52.5218 12.299 53.1464 12.7976 53.1464 13.4861V18.5196C53.1464 19.2082 52.5218 19.6831 51.5713 19.6831H40.5455ZM22.2145 7.88279H50.7838V5.05738C50.7838 2.20822 48.8828 0.522461 45.5968 0.522461H27.4015C24.1154 0.522461 22.2145 2.20822 22.2145 5.05738V7.88279Z" fill="black"/>
</svg>
