<svg width="75" height="64" viewBox="0 0 75 64" fill="none" xmlns="http://www.w3.org/2000/svg">
<path d="M28.426 59.4999V41.1466C28.426 39.817 29.3342 38.9623 30.7088 38.9623H43.3753C44.75 38.9623 45.6337 39.817 45.6337 41.1466V59.4999H28.426ZM9.37712 57.2919C9.37712 61.3282 11.881 63.7025 16.1031 63.7025H57.9565C62.1787 63.7025 64.6825 61.3282 64.6825 57.2919V31.7444L38.9568 10.8743C37.7049 9.82959 36.2812 9.87709 35.0783 10.8743L9.37712 31.6969V57.2919ZM2.33201 31.6494C3.06843 31.6494 3.68212 31.2695 4.22216 30.8184L35.8393 5.15223C36.2075 4.84357 36.6248 4.70111 37.0176 4.70111C37.4348 4.70111 37.8522 4.84357 38.2204 5.15223L69.8375 30.8184C70.3775 31.2695 70.9667 31.6494 71.7276 31.6494C73.1759 31.6494 74.0597 30.6284 74.0597 29.5838C74.0597 28.9427 73.7896 28.3254 73.1759 27.8268L40.5769 1.3771C39.4477 0.451117 38.245 0 37.0176 0C35.8147 0 34.6119 0.451117 33.4827 1.3771L0.883708 27.8268C0.270022 28.3254 0 28.9427 0 29.5838C0 30.6284 0.859161 31.6494 2.33201 31.6494ZM57.9565 16.7863L65.1735 22.6746V9.16481C65.1735 7.97765 64.3634 7.21787 63.136 7.21787H60.0185C58.7912 7.21787 57.9565 7.97765 57.9565 9.16481V16.7863Z" fill="black"/>
</svg>
