<svg width="65" height="60" viewBox="0 0 65 60" fill="none" xmlns="http://www.w3.org/2000/svg">
<path d="M0 55.0838C0 57.1257 1.22738 58.2891 3.28936 58.2891C4.02579 58.2891 4.78675 58.0754 5.69501 57.5768L19.4661 50.3352V0.379888C18.877 0.617319 18.2388 0.92598 17.6251 1.25838L2.55294 9.75839C0.834614 10.6844 0 11.9664 0 13.866V55.0838ZM23.3691 49.9315L39.2514 58.7402C39.7423 59.0013 40.2333 59.215 40.6996 59.3337V9.90079L25.2102 0.736033C24.6456 0.403631 24.0074 0.142458 23.3691 0V49.9315ZM44.6272 59.2388C44.971 59.12 45.3391 58.9776 45.6828 58.7639L62.0069 49.7178C63.7006 48.7682 64.5352 47.5097 64.5352 45.5866V4.34497C64.5352 2.27933 63.2834 1.13966 61.2705 1.13966C60.534 1.13966 59.773 1.35335 58.8648 1.85195L44.6272 9.4497V59.2388Z" fill="black"/>
</svg>
