<svg width="67" height="67" viewBox="0 0 67 67" fill="none" xmlns="http://www.w3.org/2000/svg">
<path d="M29.9479 66.0867H35.8884C37.5822 66.0867 38.7604 65.1014 39.1532 63.4018L40.7733 56.5296C41.9025 56.1355 43.0317 55.6921 44.0381 55.2241L50.0277 58.9435C51.4515 59.8548 53.0225 59.707 54.1763 58.5248L58.3493 54.362C59.5276 53.1797 59.6994 51.5786 58.7421 50.1253L55.0599 44.1645C55.5264 43.1054 55.9682 42.0215 56.3119 40.9378L63.2097 39.3121C64.9035 38.918 65.8362 37.7356 65.8362 36.0361V30.1492C65.8362 28.4742 64.9035 27.3165 63.2097 26.8978L56.3609 25.2474C55.9682 24.0651 55.5018 22.9813 55.109 22.0207L58.7912 15.9613C59.6994 14.5081 59.6012 13.0055 58.3984 11.7986L54.1763 7.61117C52.9734 6.50275 51.5251 6.25643 50.1014 7.1678L44.0381 10.9364C43.0562 10.4439 41.9516 10.0251 40.7733 9.63096L39.1532 2.68485C38.7604 0.985265 37.5822 0 35.8884 0H29.9479C28.2542 0 27.0759 0.985265 26.6831 2.68485L25.063 9.58169C23.9338 9.97579 22.8045 10.3946 21.7736 10.9118L15.7349 7.1678C14.3112 6.25643 12.8137 6.45348 11.6601 7.61117L7.43788 11.7986C6.23505 13.0055 6.13687 14.5081 7.04512 15.9613L10.7272 22.0207C10.3345 22.9813 9.86809 24.0651 9.47533 25.2474L2.62658 26.8978C0.957354 27.3165 0 28.4742 0 30.1492V36.0361C0 37.7356 0.957354 38.918 2.62658 39.3121L9.52443 40.9378C9.86809 42.0215 10.31 43.1054 10.7763 44.1645L7.09421 50.1253C6.13687 51.5786 6.30869 53.1797 7.48697 54.362L11.6601 58.5248C12.8137 59.707 14.3848 59.8548 15.8086 58.9435L21.7981 55.2241C22.8291 55.6921 23.9338 56.1355 25.063 56.5296L26.6831 63.4018C27.0759 65.1014 28.2542 66.0867 29.9479 66.0867ZM32.9182 44.337C26.7076 44.337 21.6509 39.2628 21.6509 33.031C21.6509 26.7992 26.7076 21.7251 32.9182 21.7251C39.1286 21.7251 44.1855 26.7992 44.1855 33.031C44.1855 39.2628 39.1286 44.337 32.9182 44.337Z" fill="black"/>
</svg>
