<svg width="40" height="40" viewBox="0 0 40 40" fill="none" xmlns="http://www.w3.org/2000/svg">
<g clip-path="url(#clip0_167_1750)">
<path d="M19.9211 6.90842C20.6817 6.90842 21.2846 6.29087 21.2846 5.544V1.36446C21.2846 0.617594 20.6817 0 19.9211 0C19.1747 0 18.5719 0.617594 18.5719 1.36446V5.544C18.5719 6.29087 19.1747 6.90842 19.9211 6.90842ZM29.1497 10.7577C29.6807 11.2747 30.5418 11.3034 31.0872 10.7577L34.0438 7.79895C34.5748 7.26749 34.5605 6.3914 34.0438 5.85994C33.5128 5.34292 32.6516 5.32853 32.1206 5.85994L29.1497 8.83304C28.6186 9.36444 28.633 10.2262 29.1497 10.7577ZM32.9674 19.9928C32.9674 20.7397 33.5845 21.3429 34.3308 21.3429H38.493C39.2393 21.3429 39.8565 20.7397 39.8565 19.9928C39.8565 19.246 39.2393 18.6284 38.493 18.6284H34.3308C33.5845 18.6284 32.9674 19.246 32.9674 19.9928ZM29.1497 29.228C28.633 29.7594 28.6186 30.6356 29.1497 31.1526L32.1206 34.1257C32.6516 34.6571 33.5128 34.6284 34.0438 34.1113C34.5605 33.5799 34.5748 32.7182 34.0438 32.2011L31.0728 29.228C30.5418 28.711 29.6807 28.711 29.1497 29.228ZM19.9211 33.0772C19.1747 33.0772 18.5719 33.6805 18.5719 34.4273V38.6068C18.5719 39.3681 19.1747 39.9713 19.9211 39.9713C20.6817 39.9713 21.2846 39.3681 21.2846 38.6068V34.4273C21.2846 33.6805 20.6817 33.0772 19.9211 33.0772ZM10.7068 29.228C10.1758 28.711 9.30035 28.711 8.76927 29.228L5.81269 32.1867C5.28167 32.7038 5.296 33.5655 5.79836 34.097C6.32939 34.614 7.2049 34.6427 7.72155 34.1113L10.6925 31.1526C11.2092 30.6356 11.2092 29.7594 10.7068 29.228ZM6.8748 19.9928C6.8748 19.246 6.27197 18.6284 5.52563 18.6284H1.36348C0.617151 18.6284 0 19.246 0 19.9928C0 20.7397 0.617151 21.3429 1.36348 21.3429H5.52563C6.27197 21.3429 6.8748 20.7397 6.8748 19.9928ZM10.6925 10.7577C11.2092 10.2406 11.2092 9.35011 10.7068 8.83304L7.73593 5.85994C7.23356 5.35726 6.3581 5.34292 5.82708 5.85994C5.31038 6.3914 5.296 7.26749 5.81269 7.78456L8.76927 10.7577C9.30035 11.2891 10.1615 11.2747 10.6925 10.7577Z" fill="black" fill-opacity="0.85"/>
<path d="M19.9068 29.2279C25.0018 29.2279 29.1497 25.0915 29.1497 19.9927C29.1497 14.894 25.0018 10.7432 19.9068 10.7432C14.8117 10.7432 10.6782 14.894 10.6782 19.9927C10.6782 25.0915 14.8117 29.2279 19.9068 29.2279Z" fill="black" fill-opacity="0.85"/>
</g>
<defs>
<clipPath id="clip0_167_1750">
<rect width="40" height="40" fill="white"/>
</clipPath>
</defs>
</svg>
