<?xml version="1.0" encoding="utf-8"?>
<!-- Generator: Adobe Illustrator 24.0.1, SVG Export Plug-In . SVG Version: 6.00 Build 0)  -->
<svg version="1.1" id="图层_1" xmlns="http://www.w3.org/2000/svg" xmlns:xlink="http://www.w3.org/1999/xlink" x="0px" y="0px"
	 viewBox="0 0 299.6 299.6" style="enable-background:new 0 0 299.6 299.6;" xml:space="preserve">
<style type="text/css">
	.st0{display:none;fill:url(#backHorizon_2_);}
	.st1{fill:none;stroke:#FFFFFF;stroke-width:4;}
	.st2{fill:#FFFFFF;}
	.st3{font-family:'AlibabaPuHuiTi-Medium-GBpc-EUC-H';}
	.st4{font-size:24px;}
	.st5{fill:none;stroke:#FFFFFF;stroke-miterlimit:10;}
	.st6{display:none;}
	.st7{display:inline;fill:none;stroke:#FFFFFF;stroke-width:3;stroke-miterlimit:10;}
	.st8{display:inline;fill:none;}
	.st9{fill:#F1F2F2;}
	.st10{display:inline;fill:none;stroke:#7D1317;stroke-width:4;stroke-miterlimit:10;}
	.st11{display:inline;fill:none;stroke:#7D1317;stroke-width:4;stroke-linecap:round;stroke-miterlimit:10;}
	.st12{display:none;fill:#ED1C24;}
</style>
<linearGradient id="backHorizon_2_" gradientUnits="userSpaceOnUse" x1="149.8" y1="3917.4001" x2="149.8" y2="3617.8" gradientTransform="matrix(1 0 0 1 0 -3617.8)">
	<stop  offset="0.5" style="stop-color:#558EBB"/>
	<stop  offset="0.501" style="stop-color:#6AA433"/>
</linearGradient>
<circle id="backHorizon_1_" class="st0" cx="149.8" cy="149.8" r="149.8"/>
<g>
	<line class="st1" x1="181.8" y1="209.8" x2="117.8" y2="209.8"/>
	<line class="st1" x1="181.8" y1="89.8" x2="117.8" y2="89.8"/>
	<line class="st1" x1="166.7" y1="119.8" x2="132.9" y2="119.8"/>
	<line class="st1" x1="166.7" y1="179.8" x2="132.9" y2="179.8"/>
	<text transform="matrix(1 0 0 1 84.4877 96.7139)" class="st2 st3 st4">10</text>
	<text transform="matrix(1 0 0 1 184.3914 96.7139)" class="st2 st3 st4">10</text>
	<text transform="matrix(1 0 0 1 74.8789 217.4202)" class="st2 st3 st4">-10</text>
	<text transform="matrix(1 0 0 1 184.3912 217.4205)" class="st2 st3 st4">-10</text>
	<line class="st1" x1="181.8" y1="149.8" x2="117.8" y2="149.8"/>
</g>
<g id="Layer_2_1_">
	<line class="st1" x1="149.8" y1="42.2" x2="149.8" y2="15.2"/>
	<line class="st1" x1="177.5" y1="36.9" x2="182.2" y2="19.5"/>
	<line class="st1" x1="203.4" y1="47.6" x2="212.4" y2="32"/>
	<line class="st1" x1="225.6" y1="64.6" x2="238.3" y2="51.9"/>
	<line class="st1" x1="242.6" y1="86.8" x2="258.2" y2="77.8"/>
	<line class="st1" x1="122.1" y1="36.8" x2="117.4" y2="19.4"/>
	<line class="st1" x1="96.2" y1="47.5" x2="87.2" y2="31.9"/>
	<line class="st1" x1="74" y1="64.6" x2="61.3" y2="51.8"/>
	<line class="st1" x1="56.9" y1="86.7" x2="41.4" y2="77.7"/>
	<rect x="140.8" y="281" class="st5" width="18" height="18"/>
</g>
<g class="st6">
	<circle class="st7" cx="149.8" cy="149.8" r="148.3"/>
	<circle class="st8" cx="149.8" cy="149.8" r="146.3"/>
	<polygon class="st9" points="155.6,3.5 149.8,15.2 144,3.5 	"/>
</g>
<g class="st6">
	<line class="st10" x1="18.6" y1="149.8" x2="84.2" y2="149.8"/>
	<line class="st10" x1="281" y1="149.8" x2="215.4" y2="149.8"/>
	<polyline class="st11" points="195.8,161.7 149.8,149.8 103.8,161.7 	"/>
</g>
<polygon class="st12" points="149.8,31.9 139,3.1 160.6,3.1 "/>
</svg>
