<?xml version="1.0" encoding="utf-8"?>
<!-- Generator: Adobe Illustrator 24.0.1, SVG Export Plug-In . SVG Version: 6.00 Build 0)  -->
<svg version="1.1" id="图层_1" xmlns="http://www.w3.org/2000/svg" xmlns:xlink="http://www.w3.org/1999/xlink" x="0px" y="0px"
	 viewBox="0 0 299.6 299.6" style="enable-background:new 0 0 299.6 299.6;" xml:space="preserve">
<style type="text/css">
	.st0{display:none;fill:url(#backHorizon_2_);}
	.st1{display:none;}
	.st2{display:inline;fill:none;stroke:#FFFFFF;stroke-width:3;stroke-miterlimit:10;}
	.st3{display:inline;fill:none;}
	.st4{display:inline;fill:none;stroke:#FFFFFF;stroke-width:2;stroke-linecap:round;stroke-miterlimit:10;}
	.st5{display:inline;fill:none;stroke:#FFFFFF;stroke-linecap:round;stroke-miterlimit:10;}
	.st6{display:inline;}
	.st7{fill:#F1F2F2;}
	.st8{display:inline;fill:#F1F2F2;}
	.st9{fill:#C72B27;}
	.st10{fill:#7F0036;}
	.st11{fill:#EE3424;}
</style>
<linearGradient id="backHorizon_2_" gradientUnits="userSpaceOnUse" x1="149.8" y1="3817" x2="149.8" y2="3517.3999" gradientTransform="matrix(1 0 0 1 0 -3517.3999)">
	<stop  offset="0.5" style="stop-color:#558EBB"/>
	<stop  offset="0.501" style="stop-color:#6AA433"/>
</linearGradient>
<circle id="backHorizon_1_" class="st0" cx="149.8" cy="149.8" r="149.8"/>
<g class="st1">
	<circle class="st2" cx="149.8" cy="149.8" r="148.2"/>
	<circle class="st3" cx="149.8" cy="149.8" r="146.2"/>
	<line class="st4" x1="149.8" y1="6" x2="149.8" y2="29.4"/>
	<line class="st4" x1="77.9" y1="25.2" x2="89.6" y2="45.5"/>
	<line class="st4" x1="25.2" y1="77.9" x2="45.5" y2="89.6"/>
	<line class="st4" x1="6" y1="149.8" x2="29.4" y2="149.8"/>
	<line class="st4" x1="25.2" y1="221.7" x2="45.5" y2="210"/>
	<line class="st4" x1="77.9" y1="274.4" x2="89.6" y2="254.1"/>
	<line class="st4" x1="149.8" y1="293.6" x2="149.8" y2="270.2"/>
	<line class="st4" x1="221.7" y1="274.4" x2="210" y2="254.1"/>
	<line class="st4" x1="274.4" y1="221.7" x2="254.1" y2="210"/>
	<line class="st4" x1="293.6" y1="149.8" x2="270.2" y2="149.8"/>
	<line class="st4" x1="274.4" y1="77.9" x2="254.1" y2="89.6"/>
	<line class="st4" x1="221.7" y1="25.2" x2="210" y2="45.5"/>
	<line class="st5" x1="149.8" y1="6" x2="149.8" y2="21"/>
	<line class="st5" x1="124.8" y1="8.1" x2="127.4" y2="23"/>
	<line class="st5" x1="100.6" y1="14.6" x2="105.8" y2="28.8"/>
	<line class="st5" x1="77.9" y1="25.2" x2="85.4" y2="38.3"/>
	<line class="st5" x1="57.3" y1="39.6" x2="67" y2="51.2"/>
	<line class="st5" x1="39.6" y1="57.3" x2="51.2" y2="67"/>
	<line class="st5" x1="25.2" y1="77.9" x2="38.3" y2="85.4"/>
	<line class="st5" x1="14.6" y1="100.6" x2="28.8" y2="105.8"/>
	<line class="st5" x1="8.1" y1="124.8" x2="23" y2="127.4"/>
	<line class="st5" x1="6" y1="149.8" x2="21" y2="149.8"/>
	<line class="st5" x1="8.1" y1="174.8" x2="23" y2="172.2"/>
	<line class="st5" x1="14.6" y1="199" x2="28.8" y2="193.8"/>
	<line class="st5" x1="25.2" y1="221.7" x2="38.3" y2="214.2"/>
	<line class="st5" x1="39.6" y1="242.3" x2="51.2" y2="232.6"/>
	<line class="st5" x1="57.3" y1="260" x2="67" y2="248.4"/>
	<line class="st5" x1="77.9" y1="274.4" x2="85.4" y2="261.3"/>
	<line class="st5" x1="100.6" y1="285" x2="105.8" y2="270.8"/>
	<line class="st5" x1="124.8" y1="291.5" x2="127.4" y2="276.6"/>
	<line class="st5" x1="149.8" y1="293.6" x2="149.8" y2="278.6"/>
	<line class="st5" x1="174.8" y1="291.5" x2="172.2" y2="276.6"/>
	<line class="st5" x1="199" y1="285" x2="193.8" y2="270.8"/>
	<line class="st5" x1="221.7" y1="274.4" x2="214.2" y2="261.3"/>
	<line class="st5" x1="242.3" y1="260" x2="232.6" y2="248.4"/>
	<line class="st5" x1="260" y1="242.3" x2="248.4" y2="232.6"/>
	<line class="st5" x1="274.4" y1="221.7" x2="261.3" y2="214.2"/>
	<line class="st5" x1="285" y1="199" x2="270.8" y2="193.8"/>
	<line class="st5" x1="291.5" y1="174.8" x2="276.6" y2="172.2"/>
	<line class="st5" x1="293.6" y1="149.8" x2="278.6" y2="149.8"/>
	<line class="st5" x1="291.5" y1="124.8" x2="276.6" y2="127.4"/>
	<line class="st5" x1="285" y1="100.6" x2="270.8" y2="105.8"/>
	<line class="st5" x1="274.4" y1="77.9" x2="261.3" y2="85.4"/>
	<line class="st5" x1="260" y1="57.3" x2="248.4" y2="67"/>
	<line class="st5" x1="242.3" y1="39.6" x2="232.6" y2="51.2"/>
	<line class="st5" x1="221.7" y1="25.2" x2="214.2" y2="38.3"/>
	<line class="st5" x1="199" y1="14.6" x2="193.8" y2="28.8"/>
	<line class="st5" x1="174.8" y1="8.1" x2="172.2" y2="23"/>
	<g class="st6">
		<path class="st7" d="M40,161.5l-6.2-23.4H37l3.6,15.3c0.4,1.6,0.7,3.2,1,4.8c0.6-2.5,0.9-3.9,1.1-4.3l4.5-15.8h3.7l3.4,11.8
			c0.8,2.9,1.4,5.7,1.8,8.3c0.3-1.5,0.7-3.2,1.2-5.1l3.7-15h3.1l-6.4,23.4h-3l-4.9-17.8c-0.4-1.5-0.7-2.4-0.7-2.7
			c-0.2,1.1-0.5,2-0.7,2.7l-5,17.8H40L40,161.5z"/>
	</g>
	<g class="st6">
		<path class="st7" d="M140.9,256.5l2.8-0.2c0.1,1.1,0.4,2.1,0.9,2.8c0.5,0.7,1.2,1.3,2.3,1.8s2.2,0.7,3.5,0.7c1.1,0,2.1-0.2,3-0.5
			s1.5-0.8,2-1.4c0.4-0.6,0.6-1.2,0.6-1.9s-0.2-1.3-0.6-1.9c-0.4-0.5-1.1-1-2-1.3c-0.6-0.2-1.9-0.6-4-1.1s-3.5-1-4.4-1.4
			c-1.1-0.6-1.9-1.3-2.4-2.1c-0.5-0.8-0.8-1.8-0.8-2.8c0-1.1,0.3-2.2,1-3.2c0.6-1,1.6-1.7,2.8-2.3c1.2-0.5,2.6-0.8,4.2-0.8
			c1.7,0,3.2,0.3,4.4,0.8c1.3,0.5,2.3,1.3,3,2.4c0.7,1,1.1,2.2,1.1,3.6l-2.9,0.2c-0.2-1.4-0.7-2.5-1.6-3.2c-0.9-0.7-2.2-1.1-3.9-1.1
			c-1.8,0-3.1,0.3-4,1c-0.8,0.7-1.2,1.5-1.2,2.4c0,0.8,0.3,1.5,0.9,2c0.6,0.5,2.1,1.1,4.5,1.6c2.4,0.6,4.1,1,5,1.4
			c1.3,0.6,2.3,1.4,2.9,2.3c0.6,0.9,0.9,2,0.9,3.2s-0.3,2.3-1,3.4c-0.7,1.1-1.7,1.9-3,2.5c-1.3,0.6-2.7,0.9-4.4,0.9
			c-2,0-3.8-0.3-5.1-0.9c-1.4-0.6-2.5-1.5-3.3-2.7C141.4,259.4,141,258,140.9,256.5z"/>
	</g>
	<g class="st6">
		<path class="st7" d="M248,162v-23.4h16.9v2.8h-13.8v7.2H264v2.7h-12.9v8h14.4v2.8L248,162L248,162z"/>
	</g>
	<g class="st6">
		<path class="st7" d="M140.5,59.3V35.9h3.2L156,54.3V35.9h3v23.4h-3.2l-12.3-18.4v18.4H140.5z"/>
	</g>
	<polygon class="st8" points="144,296 149.8,284.3 155.6,296 	"/>
	<polygon class="st8" points="296,155.6 284.3,149.8 296,144 	"/>
	<polygon class="st7" points="155.6,3.6 149.8,15.3 144,3.6 	"/>
	<polygon class="st8" points="3.6,144 15.3,149.8 3.6,155.6 	"/>
</g>
<g>
	<g>
		<polygon class="st9" points="148.6,90.5 148.6,181.3 88.1,211.5 		"/>
		<path class="st10" d="M147.4,95.5v85l-56.7,28.3L147.4,95.5 M149.8,85.4L85.4,214.2l64.4-32.2V85.4L149.8,85.4z"/>
	</g>
	<g>
		<polygon class="st11" points="151,181.3 151,90.5 211.5,211.5 		"/>
		<path class="st10" d="M152.2,95.5l56.7,113.3l-56.7-28.3L152.2,95.5 M149.8,85.4V182l64.4,32.2L149.8,85.4L149.8,85.4z"/>
	</g>
</g>
</svg>
