<?xml version="1.0" encoding="utf-8"?>
<!-- Generator: Adobe Illustrator 24.0.1, SVG Export Plug-In . SVG Version: 6.00 Build 0)  -->
<svg version="1.1" id="图层_1" xmlns="http://www.w3.org/2000/svg" xmlns:xlink="http://www.w3.org/1999/xlink" x="0px" y="0px"
	 viewBox="0 0 400 400" style="enable-background:new 0 0 400 400;" xml:space="preserve">
<style type="text/css">
	.st0{fill:url(#backHorizon_2_);}
	.st1{fill:none;stroke:#FFFFFF;stroke-width:4;}
	.st2{fill:#FFFFFF;}
	.st3{font-family:'AlibabaPuHuiTi-Medium-GBpc-EUC-H';}
	.st4{font-size:24px;}
	.st5{fill:none;stroke:#FFFFFF;stroke-miterlimit:10;}
	.st6{fill:none;stroke:#7D1317;stroke-width:4;stroke-miterlimit:10;}
	.st7{fill:none;stroke:#7D1317;stroke-width:4;stroke-linecap:round;stroke-miterlimit:10;}
	.st8{fill:#ED1C24;}
</style>
<linearGradient id="backHorizon_2_" gradientUnits="userSpaceOnUse" x1="200" y1="2109.2" x2="200" y2="1809.6" gradientTransform="matrix(1 0 0 1 0 -1759.4)">
	<stop  offset="0.5" style="stop-color:#558EBB"/>
	<stop  offset="0.501" style="stop-color:#6AA433"/>
</linearGradient>
<circle id="backHorizon_1_" class="st0" cx="200" cy="200" r="149.8"/>
<g>
	<line class="st1" x1="232" y1="260" x2="168" y2="260"/>
	<line class="st1" x1="232" y1="140" x2="168" y2="140"/>
	<line class="st1" x1="216.9" y1="170" x2="183.1" y2="170"/>
	<line class="st1" x1="216.9" y1="230" x2="183.1" y2="230"/>
	<text transform="matrix(1 0 0 1 134.6877 146.9138)" class="st2 st3 st4">10</text>
	<text transform="matrix(1 0 0 1 234.5914 146.9138)" class="st2 st3 st4">10</text>
	<text transform="matrix(1 0 0 1 125.0789 267.6201)" class="st2 st3 st4">-10</text>
	<text transform="matrix(1 0 0 1 234.5912 267.6205)" class="st2 st3 st4">-10</text>
	<line class="st1" x1="232" y1="200" x2="168" y2="200"/>
</g>
<g id="Layer_2_1_">
	<line class="st1" x1="200" y1="92.4" x2="200" y2="65.4"/>
	<line class="st1" x1="227.7" y1="87.1" x2="232.4" y2="69.7"/>
	<line class="st1" x1="253.6" y1="97.8" x2="262.6" y2="82.2"/>
	<line class="st1" x1="275.8" y1="114.8" x2="288.5" y2="102.1"/>
	<line class="st1" x1="292.8" y1="137" x2="308.4" y2="128"/>
	<line class="st1" x1="172.3" y1="87" x2="167.6" y2="69.6"/>
	<line class="st1" x1="146.4" y1="97.7" x2="137.4" y2="82.1"/>
	<line class="st1" x1="124.2" y1="114.8" x2="111.5" y2="102"/>
	<line class="st1" x1="107.1" y1="136.9" x2="91.6" y2="127.9"/>
	<rect x="191" y="316.6" class="st5" width="18" height="18"/>
</g>
<g>
	<line class="st6" x1="68.8" y1="200" x2="134.4" y2="200"/>
	<line class="st6" x1="331.2" y1="200" x2="265.6" y2="200"/>
	<polyline class="st7" points="246,211.9 200,200 154,211.9 	"/>
</g>
<polygon class="st8" points="200,82.1 189.2,53.3 210.8,53.3 "/>
</svg>
